<?xml version="1.0" encoding="UTF-8"?><svg id="Layer_2" xmlns="http://www.w3.org/2000/svg" xmlns:xlink="http://www.w3.org/1999/xlink" viewBox="0 0 596.78 217.62"><defs><style>.cls-1{fill:url(#linear-gradient-2);}.cls-2{fill:#2b3990;}.cls-3{fill:url(#linear-gradient);}</style><linearGradient id="linear-gradient" x1="330.85" y1="210.13" x2="469.85" y2="51.13" gradientTransform="matrix(1, 0, 0, 1, 0, 0)" gradientUnits="userSpaceOnUse"><stop offset="0" stop-color="#f9ed32"/><stop offset="0" stop-color="#f9ed32"/><stop offset=".28" stop-color="#f9ed32"/><stop offset=".67" stop-color="#f3903f"/><stop offset=".89" stop-color="#ed683c"/><stop offset="1" stop-color="#e93e3a"/></linearGradient><linearGradient id="linear-gradient-2" x1="312.07" y1="56.27" x2="417.14" y2="13.08" xlink:href="#linear-gradient"/></defs><g id="Layer_1-2"><g><path class="cls-2" d="M120.51,112.59c0,11.19-2.68,20.86-8.02,29.01-4.54,6.84-10.2,11.69-16.98,14.55,4.35,1.87,7.9,4.94,10.63,9.24,2.74,4.29,4.1,8.86,4.1,13.71,0,12.06-6.43,20.89-19.31,26.49-9.95,4.35-23.01,6.53-39.17,6.53-13.93,0-28.89-1.15-44.86-3.45-.44-14.49-1.34-38.12-2.71-70.88-.93-17.6-2.33-41.72-4.2-72.38,11.81-2.3,26.77-3.45,44.87-3.45,50.42,0,75.64,16.88,75.64,50.65Zm-41.04,61.84c0-7.21-5.16-10.82-15.48-10.82-1.06,0-2.15,.06-3.27,.19l-.56,22.85c12.87,.56,19.31-3.51,19.31-12.22Zm3.08-44.3c0-4.79-1.93-8.45-5.78-11-3.48-2.3-8.05-3.39-13.71-3.26l-1.4,28.07c13.93,.5,20.89-4.1,20.89-13.81Z"/><path class="cls-2" d="M237,208.66h-51.02l-3.45-12.41c-1.43,.56-5.01,2.46-10.72,5.69-3.67,2.36-7.74,5.5-12.22,9.42l-5.32-11.28c-1.06-2.24-2.58-5.38-4.57-9.42l-5.04,18h-27.05c3.98-15.36,10.13-40.7,18.47-76.02,5.1-23.63,9.36-46.04,12.78-67.25h56.06c1.74,9.76,6.5,32.49,14.27,68.18,4.29,18.65,10.23,43.68,17.81,75.08Zm-58.85-30.59c-1.06-3.29-2.92-8.64-5.6-16.04-1.62-4.1-4.07-9.76-7.37-16.98-1.43,3.61-3.67,9.51-6.72,17.72-1.68,4.73-3.67,11.16-5.97,19.31,1.86,0,6.09-.37,12.69-1.12,3.98-.56,8.3-1.52,12.96-2.89Z"/><path class="cls-2" d="M341.37,65.4l-4.01,59.04c-2.3-.37-7.27-1.03-14.92-1.96-5.22-.5-10.95-.81-17.16-.93l-1.4,17.82c6.84,.19,18,.03,33.49-.47-.68,2.3-1.77,6.59-3.26,12.87-.87,3.79-1.65,8.18-2.33,13.15-1.8-.43-6.31-.99-13.52-1.68-3.36-.19-8.33-.25-14.92-.19l-.94,20.8c4.66-.06,13.25-.47,25.74-1.21,2.36-.19,6.25-.93,11.66-2.24-.5,1.93-1.65,6.56-3.45,13.9-.87,3.79-1.93,8.58-3.17,14.36h-83.47l-2.71-73.12c-.5-16.73-1.71-40.11-3.64-70.14h98.03Z"/><path class="cls-2" d="M596.78,65.4c-.87,12.56-2.08,34.48-3.64,65.75-.93,23.01-1.71,49.46-2.33,79.37-8.14-6.4-20.55-15.95-37.21-28.63-7.21-5.04-17.97-12.59-32.27-22.66l-.93,49.43h-30.04c-.5-12.62-1.65-36.44-3.45-71.44-1.56-28.35-3.14-52.29-4.76-71.82h46.83l34.7,32.83c0-7.52-.12-13.43-.37-17.72-.19-3.79-.56-8.83-1.12-15.11h34.6Z"/><g><path class="cls-3" d="M413.04,46.72c-33.79,0-61.16,27.38-61.16,61.16s60.89,109.74,60.89,109.74c0,0,61.4-75.99,61.4-109.74s-27.38-61.16-61.13-61.16Zm-.16,163.86s-25.5-40.87-25.5-56.86,11.5-28.98,25.65-28.98,25.62,12.98,25.62,28.98-25.77,56.86-25.77,56.86Z"/><path class="cls-1" d="M391.46,21.21l-21.14-15.5-4.02,25.9-29.63-.39,27.29,30.35c14.84-13.62,31.68-20.34,50.33-20.81l-2.12-40.75-20.7,21.21Z"/></g></g></g></svg>